<?xml version="1.0" encoding="UTF-8" standalone="no"?>
<svg
   xmlns:dc="http://purl.org/dc/elements/1.1/"
   xmlns:cc="http://creativecommons.org/ns#"
   xmlns:rdf="http://www.w3.org/1999/02/22-rdf-syntax-ns#"
   xmlns:svg="http://www.w3.org/2000/svg"
   xmlns="http://www.w3.org/2000/svg"
   xmlns:sodipodi="http://sodipodi.sourceforge.net/DTD/sodipodi-0.dtd"
   xmlns:inkscape="http://www.inkscape.org/namespaces/inkscape"
   version="1.1"
   id="svg10"
   width="1418.6667"
   height="1418.6667"
   viewBox="0 0 1418.6667 1418.6667"
   sodipodi:docname="logo.svg"
   inkscape:version="1.0.2 (e86c870, 2021-01-15)">
  <metadata
     id="metadata16">
    <rdf:RDF>
      <cc:Work
         rdf:about="">
        <dc:format>image/svg+xml</dc:format>
        <dc:type
           rdf:resource="http://purl.org/dc/dcmitype/StillImage" />
        <dc:title></dc:title>
      </cc:Work>
    </rdf:RDF>
  </metadata>
  <defs
     id="defs14" />
  <sodipodi:namedview
     pagecolor="#ffffff"
     bordercolor="#666666"
     borderopacity="1"
     objecttolerance="10"
     gridtolerance="10"
     guidetolerance="10"
     inkscape:pageopacity="0"
     inkscape:pageshadow="2"
     inkscape:window-width="776"
     inkscape:window-height="480"
     id="namedview12"
     showgrid="false"
     inkscape:zoom="0.12811324"
     inkscape:cx="517.51258"
     inkscape:cy="734.41658"
     inkscape:window-x="0"
     inkscape:window-y="1080"
     inkscape:window-maximized="0"
     inkscape:current-layer="g18" />
  <g
     inkscape:groupmode="layer"
     inkscape:label="Image"
     id="g18">
    <path
       style="fill:#000000;stroke-width:1.33333"
       d="m 1108.8431,1324.6708 c -4.1154,-2.1924 -5.5406,-7.4921 -3.8286,-14.237 2.1676,-8.5395 5.9143,-10.9912 19.6916,-12.8854 11.9248,-1.6396 21.505,-5.3574 25.063,-9.7262 0.9903,-1.216 5.0088,-7.011 8.9301,-12.8776 7.6409,-11.4319 17.1756,-21.2353 24.7176,-25.4143 5.9081,-3.2736 6.6212,-4.292 6.6463,-9.4905 0.021,-4.3242 -2.8281,-8.4286 -5.8503,-8.4286 -2.0963,0 -24.1795,6.6106 -61.0221,18.267 -3.4244,1.0834 -7.3244,1.7666 -8.6667,1.5181 -2.9281,-0.542 -4.8604,-4.3226 -37.031,-72.4517 -8.53,-18.0645 -22.8509,-47.6117 -39.7438,-82 -38.00572,-77.3674 -36.9991,-75.099 -36.9991,-83.3752 0,-7.4978 0.7962,-10.1669 18.2832,-61.29152 3.2609,-9.53333 7.3515,-21.83334 9.0903,-27.33334 1.7388,-5.5 4.1578,-12.7 5.3756,-16 1.2178,-3.3 5.4135,-15.3 9.3237,-26.66666 3.9101,-11.36667 8.9642,-26.0245 11.2311,-32.57295 3.3495,-9.67567 3.8008,-12.22019 2.4089,-13.58185 -1.7311,-1.69351 -4.568,-2.09608 -52.1333,-7.39782 -28.5318,-3.18021 -32.99968,-2.91749 -50.24613,2.95459 -15.99742,5.44681 -21.77162,4.34639 -35.61068,-6.78656 -5.43447,-4.37181 -10.95227,-7.94875 -12.26178,-7.94875 -3.5688,0 -5.53053,2.88276 -16.40222,24.10298 -5.47676,10.68996 -12.59694,22.98996 -15.82263,27.33333 -8.3202,11.20311 -20.02467,25.9736 -23.68819,29.89337 -1.71536,1.83535 -5.52309,6.46799 -8.46165,10.29476 -4.66349,6.07312 -5.33609,7.82499 -5.28999,13.77835 0.0596,7.68668 0.64654,6.89904 -23.54845,31.59774 -11.56275,11.80346 -28.6958,30.18586 -41.89611,44.95117 -4.13341,4.62346 -4.99852,5.05786 -6.91101,3.47066 -1.90634,-1.5821 -2.7076,-1.2346 -6.26019,2.715 -9.50864,10.5712 -26.86579,39.8083 -30.98712,52.196 -0.951,2.8585 -3.48139,2.9451 -9.73231,0.3333 -5.34878,-2.2348 -9.79434,-2.608 -9.79434,-0.8221 0,0.6478 1.05,1.5303 2.33333,1.9612 1.28333,0.431 3.53076,1.5509 4.99428,2.4889 10.23073,6.5568 10.00572,6.2686 10.00572,12.8159 0,10.7445 -6.74545,20.8181 -17.66057,26.3741 -4.00715,2.0398 -7.66939,5.2915 -9.98752,8.8681 -6.55447,10.1126 -7.84991,10.0577 -25.01858,-1.0598 -7.33333,-4.7487 -14.68333,-9.2174 -16.33333,-9.9304 -4.09344,-1.7691 -3.7653,-5.1599 1.06665,-11.0218 4.89105,-5.9337 4.14435,-8.2985 -4.41997,-13.9979 -6.97602,-4.6423 -10.31063,-6.1668 -19.64668,-8.9819 -22.06511,-6.6533 -36.50134,-16.999 -69.57379,-49.86 -15.26775,-15.17013 -27.75955,-28.57095 -27.75955,-29.77961 0,-6.36974 10.71903,-8.46462 19.71979,-3.85394 7.17443,3.67513 14.78935,10.0597 19.27785,16.16313 3.0158,4.10082 4.73204,5.27172 7.45967,5.08912 1.94848,-0.1304 7.80876,1.9295 13.02285,4.5777 8.59483,4.3653 9.73691,4.6351 12.22943,2.8893 3.95011,-2.7668 32.40313,-4.4795 50.30333,-3.0281 8.05957,0.6535 16.51079,0.8604 18.78051,0.4598 12.9999,-2.2945 48.53991,-37.75225 48.53991,-48.42761 0,-4.13396 -0.57273,-5.77021 -7.22011,-20.6272 -1.89561,-4.23671 -3.44656,-8.01963 -3.44656,-8.40648 0,-0.38685 -1.12601,-3.22045 -2.50225,-6.29688 -10.61751,-23.73424 -10.62341,-23.02841 0.28653,-34.26019 11.1388,-11.46737 23.87503,-28.74954 43.26768,-58.71128 8.76511,-13.54213 20.36415,-31.35326 25.77564,-39.58032 5.41148,-8.22704 15.23907,-23.43116 21.83907,-33.78692 6.6,-10.35577 12.75,-19.63169 13.66667,-20.61317 0.91667,-0.98147 1.66667,-2.09728 1.66667,-2.47956 0,-0.38228 1.82593,-3.40059 4.05764,-6.70735 7.63325,-11.31032 13.0014,-14.88775 43.27569,-28.83959 5.13333,-2.36568 18.47261,-8.72186 29.64285,-14.12485 11.17024,-5.403 20.62024,-9.82363 21,-9.82363 2.13632,0 -0.15213,2.55286 -5.97618,6.66667 -3.63371,2.56667 -6.62023,5.11667 -6.63671,5.66667 -0.0165,0.55 -0.62477,1 -1.35176,1 -0.72699,0 -3.87699,1.95254 -7,4.33898 -17.1024,13.06875 -18.3144,14.68387 -12.6782,16.89524 2.48277,0.97411 16.44437,5.35167 43.09467,13.51199 2.25206,0.68959 5.25206,1.24044 6.66666,1.22413 2.29079,-0.0264 2.20755,-0.3184 -0.76133,-2.67062 -1.83333,-1.45255 -4.83333,-3.03079 -6.66667,-3.5072 -1.83333,-0.47643 -6.33333,-2.20531 -10,-3.84199 -3.66666,-1.63667 -8.61666,-3.71788 -11,-4.62491 -6.30542,-2.39968 -5.33364,-4.74589 2.66667,-6.4382 44.42763,-9.39781 53.65876,-10.24152 110.6667,-10.1148 33.2875,0.074 47.67,-0.32821 47.6777,-1.33333 0.027,-3.50945 -11.7364,-24.29741 -16.4343,-29.04252 -3.6245,-3.66083 -13.2761,-9.28347 -32.0482,-18.66998 -35.17631,-17.58896 -33.71935,-17.56952 -63.80092,-0.85121 -5.3502,2.97345 -19.62765,10.51735 -31.72765,16.76419 -12.1,6.24684 -22.6,11.80875 -23.33333,12.3598 -0.73333,0.55104 -5.53333,3.25899 -10.66667,6.01767 -20.18712,10.84862 -26.7728,14.44264 -29.33333,16.00809 -1.46667,0.89669 -7.46667,4.19333 -13.33333,7.32587 -5.86667,3.13253 -13.96667,7.49748 -18,9.69989 -25.55306,13.95332 -33.33761,16.94891 -44.04471,16.94891 -8.79831,0 -12.02343,-2.29212 -23.01978,-16.36034 -8.84962,-11.3218 -20.71984,-23.0081 -32.81472,-32.30633 -9.34642,-7.18529 -12.65337,-12.64292 -11.54326,-19.05053 1.56157,-9.01347 1.09254,-10.80559 -5.09879,-19.48197 -3.37771,-4.73342 -6.91352,-9.40001 -7.85739,-10.3702 -0.94386,-0.97018 -3.77944,-4.65982 -6.30128,-8.19921 -4.54946,-6.38513 -4.56726,-6.46644 -2.28596,-10.44139 2.8569,-4.97785 2.94491,-13.42001 0.22316,-21.40786 -1.66592,-4.88922 -5.19574,-9.04787 -17.86778,-21.05088 -13.1522,-12.45783 -16.06567,-15.93638 -17.43057,-20.81132 -1.93978,-6.92822 -3.80098,-7.31299 -11.31609,-2.33943 -8.04651,5.32525 -14.40395,11.83697 -20.13148,20.62004 -5.70435,8.74748 -9.41884,10.65877 -14.38759,7.40312 -3.57664,-2.34349 -2.37882,-3.12497 -18.35812,11.97729 -8.38697,7.92666 -10.43232,8.69936 -10.43232,3.94123 0,-5.27257 11.05018,-17.76504 25.33334,-28.63989 3.3,-2.51255 6.3,-4.99782 6.66666,-5.52283 0.36667,-0.525 2.76667,-2.38067 5.33334,-4.12369 11.0028,-7.47203 26.72525,-20.1206 28.02186,-22.54334 1.20251,-2.24689 0.96562,-2.64445 -1.64162,-2.755 -18.70152,-0.79294 -42.44344,5.14404 -54.58607,13.65 -4.86993,3.4114 -6.71791,3.12896 -6.21607,-0.95006 0.4059,-3.29922 2.6169,-5.0627 10.4219,-8.31247 7.18121,-2.99004 32.80828,-9.59161 37.2343,-9.59161 5.69032,0 4.55482,-6.29252 -1.49969,-8.31068 -0.67131,-0.22378 -0.84841,-1.37666 -0.39356,-2.56197 0.69893,-1.8214 2.51728,-2.05097 11.74297,-1.48254 13.92606,0.85802 14.72855,0.15737 17.15511,-14.97815 0.50276,-3.13585 0.59308,-3.13269 -24.76609,-0.86848 -23.52536,2.10048 -46.69743,1.94403 -54.31086,-0.36669 -8.50126,-2.5802 -11.49753,-4.33076 -21.22582,-12.4012 -3.335,-2.76666 -9.00258,-7.4303 -12.5946,-10.36363 -3.59204,-2.93333 -8.6634,-7.15727 -11.2697,-9.38652 -2.6063,-2.22925 -8.78873,-7.28403 -13.73873,-11.23281 -4.95,-3.94879 -9,-7.69596 -9,-8.32706 0,-0.63109 0.81178,-2.47632 1.80397,-4.10052 0.99219,-1.6242 2.60155,-6.45949 3.57636,-10.74509 2.92692,-12.86783 0.036,-20.37891 -14.85651,-38.59912 -4.31964,-5.28489 -7.80726,-10.50888 -7.75026,-11.60888 0.0708,-1.36711 0.31645,-1.47259 0.77614,-0.33333 0.36988,0.91666 1.26867,1.66666 1.99731,1.66666 0.72863,0 2.98745,1.65 5.01961,3.66667 2.03215,2.01667 9.636,9.06547 16.89743,15.66399 7.26144,6.59853 16.80262,15.3321 21.20262,19.40794 27.98756,25.92564 28.10653,26.02475 35.3216,29.42335 5.7448,2.70604 23.35304,7.43365 46.01173,12.35364 5.86667,1.27385 13.29444,2.89747 16.50616,3.60803 3.21173,0.71056 12.51173,1.60421 20.66667,1.98589 15.88712,0.74357 27.55576,3.60756 31.22295,7.66344 3.21565,3.55649 3.27184,38.77964 0.0753,47.20075 -2.89871,7.63643 -0.51483,9.97212 4.66244,4.56823 3.8832,-4.05326 6.19979,-10.41914 6.19979,-17.03695 0,-5.43184 3.31386,-13.28971 6.04692,-14.33848 1.18044,-0.45298 3.35546,-0.17646 4.83338,0.6145 2.11464,1.13174 2.48278,2.19594 1.72796,4.99523 -3.67854,13.64209 -4.0548,23.70844 -1.73972,46.54376 1.12172,11.06422 1.13796,15.54018 0.0603,16.6178 -1.07764,1.07764 -4.17233,0.2988 -11.48961,-2.8916 -9.20572,-4.0138 -14.10587,-4.57934 -14.10587,-1.62801 0,1.88277 4.38677,5.15745 8.0792,6.03104 7.39943,1.75061 13.66365,7.90132 17.81872,17.49583 0.34053,0.78634 1.46107,0.32578 2.58431,-1.0622 2.70406,-3.34139 6.94813,-2.33072 6.52486,1.55382 -0.17942,1.64672 -0.92329,3.72212 -1.65301,4.61202 -16.91192,20.62388 -17.89995,22.29025 -16.77417,28.29106 0.98964,5.2753 2.77806,6.94331 8.08676,7.54227 3.13801,0.35407 4.07546,1.16964 4.35021,3.78465 0.19263,1.83334 0.96671,5.58334 1.72019,8.33334 1.12778,4.11605 1.97237,5 4.7774,5 3.56964,0 11.1522,-3.82168 11.1522,-5.62082 0,-0.57521 0.9,-1.04585 2,-1.04585 1.1,0 2,-0.53003 2,-1.17783 0,-0.6478 1.2,-1.49162 2.66666,-1.87517 1.46667,-0.38355 2.66667,-0.32592 2.66667,0.128 0,0.45397 -2.47951,5.83069 -5.51001,11.94828 -5.13823,10.37237 -5.46423,11.69335 -4.83138,19.57727 0.37326,4.64991 1.12776,9.18107 1.67668,10.06925 1.68294,2.72304 3.2884,-1.33546 3.31096,-8.36984 0.0192,-5.97034 0.26411,-6.4154 3.93518,-7.14961 4.56636,-0.91328 5.22513,-2.2418 6.32377,-12.753 0.50317,-4.81411 1.3838,-7.63499 2.28957,-7.33402 0.96524,0.32074 1.59859,7.45048 1.83996,20.71286 0.20243,11.12308 0.80243,20.21459 1.33334,20.20336 2.86198,-0.0605 4.359,-3.07543 6.29581,-12.67945 4.38059,-21.72186 4.35017,-21.75001 12.28291,11.36653 1.31746,5.5 2.99341,10.3 3.7243,10.66667 0.82555,0.41414 1.47346,-4.25743 1.71052,-12.33334 0.2099,-7.15 0.71727,-13 1.12751,-13 0.41024,0 2.44496,1.20984 4.5216,2.68854 l 3.77569,2.68854 0.85331,-2.68854 c 1.42408,-4.48687 2.61671,-3.11808 6.06655,6.96268 2.13444,6.23701 4.09624,9.804 5.54561,10.08312 3.05836,0.58898 4.3116,-6.59822 2.51113,-14.401 -1.86744,-8.09299 -1.83541,-8.2635 1.19661,-6.36998 3.67676,2.29619 6.6832,11.98112 6.70746,21.6075 0.0225,8.9514 1.51684,13.1398 3.49048,9.78376 1.51031,-2.56819 6.26615,-5.02128 9.73479,-5.02128 4.08601,0 3.44605,-3.3472 -2.57901,-13.48888 -2.93334,-4.93754 -5.33334,-9.32244 -5.33334,-9.74423 0,-1.35428 3.47974,-0.82143 7.46182,1.14263 5.67054,2.79685 11.20485,3.95361 11.20485,2.342 0,-1.37079 -17.11748,-14.40741 -20.74523,-15.7995 -6.05945,-2.32523 1.83798,-3.11255 34.4119,-3.4306 30.8435,-0.30116 36.33333,-0.6496 36.33333,-2.30615 0,-1.22652 -3.96224,-3.39481 -10.66667,-5.83721 -23.59826,-8.59677 -23.48329,-9.38455 1.43751,-9.84925 24.55079,-0.45782 30.17981,-1.2362 29.62884,-4.09711 -0.32608,-1.69324 -3.09029,-2.59797 -11.74639,-3.8446 -16.20428,-2.33372 -21.40936,-3.56919 -21.43212,-5.08711 -0.0236,-1.5766 6.62935,-3.1911 14.11216,-3.42464 2.93334,-0.0916 6.38334,-0.44889 7.66667,-0.79409 3.03337,-0.81593 3.00768,-4.0542 -0.0399,-5.02145 -1.30524,-0.41427 -5.63501,-2.8547 -9.6217,-5.42318 -5.51354,-3.55216 -6.53687,-4.66993 -4.27538,-4.66993 1.63523,0 4.08551,0.69469 5.44508,1.54376 3.77611,2.35821 6.8252,0.48216 6.8252,-4.19941 v -4.07267 l 8.70264,4.69885 c 4.78646,2.58438 10.93646,5.26418 13.66667,5.95511 2.73021,0.69095 7.33091,1.85351 10.22376,2.58347 5.27748,1.3317 7.40693,0.9988 7.40693,-1.15792 0,-0.63696 -3.60622,-3.34878 -8.01382,-6.02626 -4.40762,-2.67748 -7.66616,-5.4307 -7.24122,-6.11829 0.42495,-0.68757 1.18118,-1.06205 1.68051,-0.83219 0.49932,0.22988 2.70787,1.22379 4.90787,2.20868 2.2,0.98491 5.9393,2.7373 8.30958,3.89422 7.04467,3.43846 8.19112,0.80873 4.41591,-10.12916 -1.71132,-4.95818 -3.62463,-9.58486 -4.25181,-10.28152 -0.62719,-0.69667 -1.14404,-2.19667 -1.14856,-3.33334 -0.004,-1.13666 -0.90452,-3.78525 -2,-5.88574 -2.2767,-4.36535 -2.5441,-7.74747 -0.75748,-9.58092 0.67885,-0.69667 1.81068,-5.47947 2.51514,-10.62844 1.26556,-9.25008 4.61826,-17.5453 14.26926,-35.3049 l 4.70968,-8.66667 -0.60804,-16 c -0.33443,-8.8 -0.64831,-16.15 -0.69753,-16.33333 -0.0492,-0.18333 -1.02402,-0.33333 -2.16623,-0.33333 -2.84286,0 -13.28571,-5.95695 -17.66458,-10.07646 -1.97561,-1.85858 -5.58957,-4.63005 -8.03102,-6.1588 -6.5507,-4.10178 -17.94347,-2.81036 -30.44704,3.45134 -5.254,2.63116 -10.83127,4.78392 -12.39394,4.78392 -4.12278,0 -9.38668,-5.823 -9.38668,-10.38368 0,-2.11103 -0.67958,-7.22216 -1.5102,-11.35806 -1.30798,-6.513 -1.20517,-7.98534 0.76799,-10.99676 3.22471,-4.92152 1.82532,-7.41798 -3.94047,-7.02968 -3.67485,0.2475 -5.48113,-0.48804 -8.07913,-3.28986 -1.93479,-2.08658 -4.76625,-3.60863 -6.71313,-3.60863 -4.9377,0 -8.52506,-2.36211 -8.52506,-5.61333 0,-1.56907 1.49328,-7.1793 3.31842,-12.46715 4.17677,-12.10123 4.60564,-14.9492 2.99962,-19.91952 -0.71086,-2.2 -1.73521,-13.6 -2.27633,-25.33334 -0.5616,-12.17716 -1.72049,-23.05012 -2.70016,-25.33333 -0.94396,-2.2 -2.53197,-5.89068 -3.52892,-8.20151 -4.21827,-9.77756 -0.76345,-18.78821 8.74457,-22.80709 13.65747,-5.77279 61.82342,-14.94495 63.5774,-12.10695 0.3792,0.61355 -1.07738,1.11555 -3.23684,1.11555 -2.15945,0 -5.64485,0.89631 -7.74534,1.99179 -2.1005,1.09548 -4.98888,1.99548 -6.41863,2 -3.66539,0.0116 -24.73379,8.11954 -24.73379,9.51854 0,1.96844 6.93655,1.24924 16,-1.6589 4.76667,-1.52947 12.86667,-3.34251 18,-4.02898 47.57913,-6.36265 55.44939,-5.36376 68.27078,8.66488 8.11987,8.88443 12.64544,21.39702 9.71757,26.86778 -1.42409,2.66094 -1.46708,4.6658 -0.21622,10.08476 1.9684,8.52758 2.0072,26.9001 0.0716,33.87248 -0.81115,2.92179 -2.6078,6.75269 -3.99256,8.51313 -3.3301,4.23352 -3.1802,5.29079 0.89509,6.31363 2.49327,0.62576 3.17104,1.44096 2.5154,3.0254 -1.82496,4.41024 -2.20843,6.83604 -1.08376,6.85591 0.63553,0.0107 1.94361,0.5202 2.90687,1.13102 1.36369,0.86479 0.80708,2.70479 -2.51476,8.31292 -5.12778,8.65706 -12.14974,23.62227 -14.95351,31.86898 -1.12196,3.3 -3.59464,10.12144 -5.49484,15.15874 -5.13633,13.61604 -4.78895,15.7662 3.54508,21.94267 3.85,2.85329 8.95,6.30209 11.33333,7.664 2.38334,1.36192 4.33334,3.24684 4.33334,4.18873 0,1.98844 -3.77907,2.233 -6.63148,0.42915 -1.8837,-1.19124 -3.96347,0.36252 -4.01478,2.99936 -0.0107,0.57712 6.12959,7.17852 13.64626,14.66976 7.51666,7.49124 16.66666,18.25098 20.33329,23.91052 9.2479,14.27415 12.6866,13.47443 9.8766,-2.29688 -0.7839,-4.39966 -2.2354,-12.79939 -3.2255,-18.66605 -0.9901,-5.86667 -2.7627,-16.06667 -3.9391,-22.66667 -4.48268,-25.14877 -6.02351,-40.68741 -6.03421,-60.85245 l -0.0111,-20.85246 11.06961,0.69062 c 9.6504,0.60206 12.4282,0.22677 21.6666,-2.92719 5.8284,-1.98977 12.5688,-4.75951 14.9786,-6.15495 3.7665,-2.181 4.489,-2.25728 5.1466,-0.54341 0.4208,1.09657 -0.2008,3.46801 -1.3815,5.26989 -2.8082,4.28584 -2.8735,20.94914 -0.113,28.86898 8.0091,22.97932 25.4679,44.8053 42.4628,53.08468 8.2321,4.0104 9.7746,4.31762 19.2269,3.82964 10.8775,-0.56156 17.6699,-3.13056 34.005,-12.86134 10.4625,-6.2325 8.4344,-8.48962 -4.0439,-4.50032 -11.195,3.57906 -19.0702,5.3169 -27.6843,6.10914 -3.6667,0.33722 -7.7167,1.0282 -9,1.53548 -4.5444,1.7963 -2.4864,-3.43508 2.1061,-5.35398 2.4417,-1.02021 5.2308,-2.80834 6.1979,-3.97364 1.9976,-2.407 0.4248,-4.10201 -7.9707,-8.59017 -2.5667,-1.37212 -5.8667,-3.8528 -7.3333,-5.51263 l -2.6667,-3.01786 3.3333,0.85596 c 7.0753,1.81685 24,2.63686 24,1.16281 0,-0.79745 -6.45,-6.68837 -14.3333,-13.09093 -16.9887,-13.79756 -23,-19.26354 -23,-20.91342 0,-0.66793 1.05,-0.77993 2.3333,-0.24888 1.9013,0.78678 21.3453,7.7901 33,11.88591 4.9444,1.73763 10.594,4.33689 28.6667,13.18908 16.8684,8.26232 24.7852,11.42491 33.7212,13.47093 4.7037,1.077 3.4218,3.44051 -1.8661,3.44051 -4.0979,0 -11.0386,2.99303 -14.1455,6.09988 -0.9647,0.96475 -3.7831,4.41224 -6.263,7.66111 -5.5258,7.2392 -9.6411,12.12704 -14.4466,17.15852 -2.0167,2.1115 -3.6667,4.11841 -3.6667,4.4598 0,0.34138 1.8,0.62069 4,0.62069 2.2,0 4,-0.6 4,-1.33333 0,-0.73334 0.7114,-1.33334 1.5808,-1.33334 0.8695,0 4.4272,-2.4 7.9059,-5.33333 3.4788,-2.93333 6.6265,-5.33333 6.9949,-5.33333 0.3684,0 1.6825,4.65 2.9201,10.33333 1.2377,5.68333 2.7786,10.90333 3.4243,11.6 0.6457,0.69667 1.174,2.03513 1.174,2.97437 0,0.93924 2.3478,6.71927 5.2172,12.84451 2.8695,6.12524 7.1622,16.48678 9.5394,23.02563 3.9858,10.96361 4.3434,13.28961 4.5952,29.88883 l 0.273,18 6.1259,1.33333 c 6.9543,1.51364 8.228,2.53975 9.4154,7.58495 1.1331,4.8145 -0.7954,5.7628 -10.7058,5.26453 -8.5588,-0.43031 -13.7936,1.25816 -13.7936,4.44907 0,1.23034 2.1695,2.14793 6.3333,2.67869 14.1126,1.79893 27.8451,8.12787 31.1877,14.37352 2.0396,3.81101 0.7674,4.08659 -7.2291,1.56589 -9.2947,-2.92989 -13.5636,-1.9242 -15.508,3.65342 -1.7634,5.05841 -0.026,6.8519 5.205,5.37445 5.6932,-1.60787 12.8068,-0.93676 16.6311,1.56897 4.4752,2.93228 9.2535,13.26576 16.4092,35.48651 11.5744,35.94192 14.1386,52.05024 13.2656,83.33334 -0.3684,13.2 -1.2866,25.8 -2.0404,28 -0.7538,2.2 -2.4119,7.6 -3.6846,12 -1.2727,4.4 -4.9235,13.41336 -8.1129,20.02969 -5.5371,11.48639 -8.9067,16.26523 -22.915,32.49824 -20.3991,23.63868 -28.8794,40.17236 -44.8657,87.47207 -6.6577,19.69851 -13.7101,36.28079 -17.9511,42.208 -5.4122,7.56432 -14.8731,17.42183 -15.8159,16.47904 -0.8147,-0.81469 3.9979,-10.87521 9.896,-20.68704 3.8237,-6.36097 5.0991,-10.66666 3.1596,-10.66666 -0.8515,0 -12.9832,11.25 -26.9594,25 -13.9761,13.75 -27.7907,27.32085 -30.699,30.15735 -3.7115,3.6199 -4.7988,5.4597 -3.6474,6.1713 1.4611,0.903 9.2755,-3.4802 21.6033,-12.1176 4.2521,-2.9792 5.6353,-1.6961 3.087,2.8634 -1.0017,1.7924 -2.8204,5.1813 -4.0415,7.5309 -1.2211,2.3496 -3.0649,4.9731 -4.0973,5.8299 -1.9572,1.6243 -2.6176,6.566 -0.8772,6.5631 0.55,-9e-4 5.2887,-3.4509 10.5305,-7.6666 26.5083,-21.3196 26.3179,-21.2436 27.6699,-11.0519 0.903,6.8077 0.8413,7.4506 -1.9524,20.3404 -1.9264,8.8878 -1.3682,10.0087 7.1761,14.4119 6.5682,3.3848 12.1069,8.3698 15.638,14.0747 2.8851,4.6611 12.1358,30.1397 11.2607,31.0148 -0.6458,0.6458 -5.9873,-2.654 -8.8024,-5.4377 -1.0196,-1.0082 -2.8732,-2.219 -4.1192,-2.6906 -2.7558,-1.0432 -2.0081,1.6723 2.113,7.6733 3.0087,4.3813 3.3365,4.8233 7.9089,10.6667 1.7215,2.2 5.6095,7.6861 8.6401,12.1914 3.0305,4.5052 6.3373,9.0186 7.3483,10.0296 1.0111,1.0111 3.4316,4.225 5.3789,7.142 4.8698,7.2948 12.0436,17.202 16.8544,23.276 4.878,6.159 4.9331,6.6943 0.6885,6.6943 -1.8333,0 -3.3333,-0.6 -3.3333,-1.3333 0,-0.7333 -1.5,-1.3333 -3.3333,-1.3333 -1.8334,0 -3.3334,0.4761 -3.3334,1.0581 0,0.9736 20.408,20.6887 38.4591,37.1534 6.086,5.5511 7.2194,7.2103 5.8743,8.6 -2.388,2.4669 -2.116,3.4987 2,7.5873 2.0166,2.0033 7.1947,7.3692 11.5068,11.9242 7.7195,8.1544 7.8068,8.333 5.6667,11.5992 -3.0424,4.6434 -2.7701,5.1685 2.1598,4.1649 10.3444,-2.106 10.5977,-1.9942 14.8507,6.5504 3.5509,7.1338 3.9583,9.234 3.8798,20 -0.083,11.4046 -2.9982,27.8886 -5.3241,30.106 -1.3109,1.2499 -21.3506,4.025 -35.3463,4.8949 -10.1195,0.6289 -10.2859,0.5877 -11.1255,-2.7575 -0.4688,-1.8678 -0.5495,-3.8861 -0.1793,-4.485 0.3702,-0.599 -0.1444,-3.0331 -1.1434,-5.4092 -2.6127,-6.2136 -7.9623,-5.9131 -17.0022,0.955 -3.8187,2.9012 -11.743,8.9369 -17.6097,13.4125 -15.1443,11.5534 -24.9668,16.0792 -37.6273,17.3368 -23.5157,2.336 -46.2798,2.811 -49.6131,1.0352 z m -14.5374,-336.72625 c 0.2445,-0.55 4.0279,-3.7 8.4077,-7 11.5661,-8.71463 39.3701,-36.89892 39.3701,-39.90855 0,-1.39475 0.75,-2.80376 1.6667,-3.13113 0.9166,-0.32739 1.3541,-0.93995 0.9721,-1.36126 -0.9044,-0.99733 -5.197,2.80518 -30.8728,27.34771 -21.7872,20.82553 -25.4868,25.05323 -21.924,25.05323 1.0647,0 2.1358,-0.45 2.3802,-1 z m -111.43472,-432.619 c -1.22554,-2.40956 -3.70898,-6.78101 -5.51875,-9.71435 -4.7714,-7.73361 -10.76633,-19.47865 -11.90985,-23.33333 -0.54387,-1.83333 -1.76583,-5.13333 -2.71546,-7.33333 -0.94962,-2.2 -2.08718,-5.50001 -2.52792,-7.33334 -1.01296,-4.21365 -4.45706,-8.76957 -5.69422,-7.53241 -1.49575,1.49573 2.10801,16.66552 6.43538,27.0894 4.50847,10.86009 9.37848,18.63859 17.3129,27.65255 6.11444,6.94638 7.99898,7.15238 4.61792,0.50481 z M 477.17259,1312.8959 c -8.65483,-1.7305 -20.03237,-7.8951 -26.07033,-14.1254 -6.67539,-6.888 -7.54804,-8.39 -9.77128,-16.8179 -3.10391,-11.7664 -13.07944,-23.0242 -19.58316,-22.1005 -3.66547,0.5206 -6.14758,6.9444 -6.25578,16.1902 -0.0631,5.3852 -0.45474,6.3583 -2.40858,5.9831 -1.77363,-0.3406 -2.69072,-2.6829 -3.82322,-9.7645 -1.56609,-9.7929 -3.06926,-13.5982 -10.52732,-26.6497 -3.67084,-6.4239 -4.57913,-9.4593 -4.61045,-15.4077 -0.0408,-7.7511 1.86908,-11.4822 14.29432,-27.9247 4.93591,-6.5317 5.5178,-11.8135 2.35044,-21.3342 -16.18904,-48.6623 -18.24437,-53.8485 -34.08243,-86 -8.55404,-17.3649 -15.84119,-34.1559 -17.85996,-41.1528 -3.7258,-12.9135 -7.42312,-37.9138 -7.38204,-49.9156 0.032,-9.34565 3.16636,-37.00263 5.9232,-52.26499 2.47012,-13.67498 2.53419,-16 0.44096,-16 -0.8854,0 -9.4354,3.87299 -19,8.60664 -29.3418,14.52166 -39.89665,18.08064 -75.39017,25.42076 -16.70762,3.45516 -27.95455,10.78843 -38.93861,25.38888 -5.6194,7.46951 -6.7404,8.31701 -11.0006,8.31701 -7.10172,0 -7.34236,-3.56285 -1.49638,-22.15541 2.69394,-8.56784 5.4262,-16.77788 6.07168,-18.24454 0.64549,-1.46667 3.15068,-9.20476 5.56708,-17.19576 5.6841,-18.79722 8.66145,-22.13758 19.73176,-22.13758 13.92387,0 23.76389,-5.50283 31.54379,-17.64017 6.62218,-10.33123 3.39902,-15.70215 -12.14539,-20.23851 -4.4,-1.28405 -9.5,-2.83788 -11.33333,-3.45295 -1.83334,-0.61505 -4.98334,-1.47848 -7,-1.91873 -2.77038,-0.60479 -3.66667,-1.58981 -3.66667,-4.02969 0,-1.77608 0.51773,-3.54922 1.15053,-3.94031 0.63279,-0.39108 5.58279,0.5452 11,2.08063 10.06468,2.85268 21.8296,3.49218 45.2445,2.45936 10.94045,-0.48258 11.80649,-0.30204 21.70962,4.52577 5.67304,2.76563 11.768,6.4818 13.54438,8.25817 2.68104,2.68104 4.54257,3.2263 10.95704,3.20935 11.00645,-0.0291 11.81321,-0.80483 9.8971,-9.51664 -1.75053,-7.95903 -4.8095,-25.99489 -6.96714,-41.07857 -1.72872,-12.0853 -4.7442,-16.79911 -11.9957,-18.75172 -3.4916,-0.9402 -5.82904,-2.53908 -6.78764,-4.64296 l -1.46208,-3.20894 -5.33929,4.57024 c -6.48373,5.54983 -13.14067,8.02174 -16.60697,6.16663 -1.3491,-0.72201 -4.43582,-5.25885 -6.85938,-10.08185 -4.00985,-7.9798 -4.77984,-8.76911 -8.55446,-8.76911 -2.70091,0 -6.87004,1.90941 -11.9506,5.47321 -5.84135,4.09748 -8.70464,5.31154 -11.39126,4.82995 -6.55021,-1.17412 -23.40717,-7.69436 -37.35949,-14.45059 -11.37455,-5.50797 -15.60884,-8.47451 -24.33334,-17.04795 -5.80937,-5.70878 -10.56249,-11.02617 -10.56249,-11.8164 0,-4.14365 1.8312,-5.65489 6.85215,-5.65489 12.71569,0 19.05814,-6.49047 19.1132,-19.55925 0.0393,-9.34515 -2.07572,-12.57455 -12.07282,-18.43324 -9.63586,-5.64699 -17.63958,-5.67856 -34.32016,-0.13536 -15.60373,5.18536 -22.89823,5.9011 -28.83781,2.82962 -5.52913,-2.85922 -15.37406,-14.66281 -20.57888,-24.67306 -7.52896,-14.4802 -9.24848,-22.1462 -12.86661,-57.36205 -3.87145,-37.68152 -9.91568,-48.97093 -28.622402,-53.46093 -14.261781,-3.42312 -17.575098,-5.16159 -19.973289,-10.47983 -1.98834,-4.40934 -2.07384,-6.30878 -0.699576,-15.54126 2.804682,-18.8422 9.458218,-33.99015 16.611197,-37.81831 3.067873,-1.64187 5.135382,-1.04651 25.03618,7.20952 11.93069,4.94955 23.49215,9.78164 25.69215,10.73796 2.2,0.95633 5.5,2.36136 7.33334,3.12231 1.83333,0.76094 5.43333,2.25546 8,3.32116 2.56666,1.06569 11.91702,5.00628 20.77857,8.75684 22.90319,9.69356 26.76623,9.1135 10.15684,-1.52511 -7.92376,-5.07531 -24.38641,-15.27741 -30.66466,-19.00327 -3.08568,-1.8312 -18.14952,-11.5328 -18.76365,-12.08438 -1.00406,-0.90182 9.35016,-13.75316 15.8373,-19.65676 3.68768,-3.35598 10.57085,-8.00498 15.29594,-10.33114 10.46866,-5.15369 14.96182,-4.69467 22.69299,2.31836 7.82143,7.0949 17.59207,12.8441 26.66667,15.69112 7.83368,2.4577 36.11572,15.77214 38.5816,18.1632 0.77436,0.75086 0.61776,4.38246 -0.41245,9.56544 -0.94778,4.76827 -1.19746,9.56895 -0.5816,11.18271 1.16645,3.05652 8.9608,13.07648 12.74578,16.38525 1.28334,1.12187 2.33334,2.75642 2.33334,3.63234 0,0.8759 0.50588,1.79256 1.12417,2.03701 0.61829,0.24444 3.94268,4.17008 7.38753,8.72363 3.44484,4.55356 7.73706,9.4384 9.53823,10.85521 4.44604,3.49725 31.14336,15.09223 33.60856,14.5966 1.08789,-0.21872 3.27993,-3.99771 4.87123,-8.39775 6.87656,-19.01432 16.09638,-30.14789 37.57217,-45.37096 14.83393,-10.515 16.87535,-12.95088 15.77392,-18.82198 -0.68789,-3.66679 -0.0427,-5.07543 4.66292,-10.18042 5.99234,-6.5009 6.43708,-7.82352 3.46127,-10.29322 -2.87676,-2.3875 -2.47394,-5.84987 1.33333,-11.46019 3.6511,-5.38019 3.93222,-6.9013 2.12107,-11.47708 -0.66675,-1.68451 -3.21014,-8.16274 -5.65199,-14.39607 -2.44185,-6.23333 -4.74633,-11.63333 -5.12107,-12 -0.37474,-0.36667 -2.01094,-3.36667 -3.63601,-6.66667 -3.33592,-6.77421 -9.40981,-17.59616 -15.16519,-27.02002 -2.13408,-3.49436 -3.88014,-6.65899 -3.88014,-7.03254 0,-0.37353 -4.2,-7.59166 -9.33334,-16.04028 -5.13333,-8.44861 -9.33333,-15.67954 -9.33333,-16.06874 0,-1.49322 -12.01828,-16.09206 -17.54151,-21.30802 -13.36782,-12.62412 -17.81477,-12.98868 -34.34153,-2.81522 -11.04087,6.79648 -25.7774,13.2994 -35.91905,15.85033 -25.24929,6.35093 -49.39042,9.1106 -81.93507,9.36628 -28.60811,0.22476 -27.68552,0.7282 -32.34567,-17.65044 -7.60697,-30.00031 -11.51713,-72.34863 -11.10763,-120.2995 0.3117,-36.4996 0.24376,-36.6137 -24.809542,-41.66975 -2.2,-0.44398 -5.308044,-1.07173 -6.906764,-1.39501 -4.023244,-0.81352 -7.093236,-4.19435 -7.093236,-7.8114 0,-1.67043 -2.155324,-7.09863 -4.789611,-12.06267 l -4.78961,-9.0255 5.365896,-13.50876 c 2.951243,-7.42982 5.563458,-14.70187 5.804922,-16.16012 0.241464,-1.45824 1.573395,-2.86982 2.959847,-3.13682 2.34617,-0.45184 2.467705,0.21684 1.754174,9.65135 -0.952237,12.59077 -0.296192,12.74061 12.706809,2.90221 5.258925,-3.97904 10.032515,-6.94362 10.607965,-6.58797 2.3049,1.42451 0.8028,5.66421 -3.62039,10.21863 -2.56667,2.64281 -4.666669,5.41173 -4.666669,6.15314 0,0.74142 2.495759,2.02007 5.546129,2.84146 6.51179,1.75344 11.50088,4.75002 14.88964,8.94316 1.33967,1.65765 3.34795,3.9261 4.46283,5.041 2.73082,2.73081 1.35551,5.94966 -2.15037,5.03286 -4.04616,-1.0581 -3.45924,1.61699 2.37674,10.83271 5.7292,9.04712 6.96851,12.92483 10.25689,32.09296 1.25807,7.33334 2.88539,15.73334 3.61627,18.66667 0.73089,2.93333 1.82042,8.63333 2.42118,12.66667 0.60076,4.03333 2.07406,12.43333 3.27401,18.66666 1.19994,6.23334 2.64059,13.88908 3.20142,17.01279 1.23084,6.85536 2.08427,7.88444 4.72272,5.69472 2.86732,-2.37967 6.04921,-0.70403 6.04921,3.1856 0,1.82056 0.9,6.76545 2,10.98864 1.1,4.22319 2,10.46373 2,13.86788 0,4.23423 0.96185,7.62048 3.04496,10.71987 2.73656,4.07164 3.76078,4.57172 10.11249,4.93742 6.76779,0.38966 11.32688,-0.85402 30.84255,-8.41357 2.56666,-0.99421 11.56666,-4.34264 20,-7.44093 12.0714,-4.4349 18.13184,-7.64566 28.48827,-15.09286 22.74994,-16.35922 26.6544,-18.88397 34.1784,-22.10085 14.19812,-6.07039 38.1874,-4.74233 51.72938,2.86375 2.6449,1.48554 6.0358,2.93726 7.53535,3.22605 1.49956,0.28879 2.92844,1.13101 3.17531,1.87161 0.24686,0.7406 1.52538,1.34655 2.84114,1.34655 1.31576,0 3.13923,0.9 4.05215,2 2.02256,2.43703 4,2.59701 4,0.32363 0,-1.50463 -10.72221,-8.92526 -13.05435,-9.03466 -0.5201,-0.0244 -2.38326,-1.24152 -4.14036,-2.70472 l -3.1947,-2.66036 7.38844,-7.32976 c 10.74888,-10.66349 15.8823,-22.31245 17.59514,-39.92746 1.02804,-10.57248 -0.0539,-12.13328 -7.16025,-10.3295 -7.02175,1.78231 -12.59705,0.36996 -10.54195,-2.6705 0.12387,-0.18334 -0.46826,-1.62927 -1.31594,-3.2132 -1.01094,-1.88894 -3.37998,-3.19052 -6.88499,-3.78268 -2.93905,-0.49655 -5.68229,-1.45062 -6.09608,-2.12014 -0.41379,-0.66953 -1.82512,-1.21732 -3.13631,-1.21732 -4.84461,0 -8.48074,-4.91578 -9.11698,-12.32549 -0.33096,-3.85431 -1.74322,-9.44728 -3.13838,-12.4288 -2.91013,-6.21918 -3.18714,-10.18772 -1.00048,-14.33336 1.84464,-3.49722 7.43408,-8.91235 9.19922,-8.91235 2.25412,0 1.33648,-5.39052 -1.0687,-6.27792 -3.18665,-1.17573 -4.28884,-3.06396 -4.31292,-7.38875 -0.0219,-3.92201 4.06514,-9 7.24356,-9 1.57332,0 1.66818,0.75292 0.51251,4.06807 -1.93847,5.56067 -0.47465,6.41215 5.28293,3.07303 6.92403,-4.0156 8.28794,-6.68799 4.86403,-9.53042 -1.50877,-1.25254 -3.44069,-3.9159 -4.29316,-5.9186 -1.33967,-3.14724 -1.20551,-3.82558 0.98889,-5 1.39638,-0.7473 3.23212,-1.35874 4.07946,-1.35874 0.84732,0 2.66681,-1.35 4.04329,-3 l 2.50269,-3 0.0444,4.89094 c 0.0244,2.69003 0.39402,5.80215 0.82138,6.91582 1.12974,2.94406 4.55632,1.09942 4.55632,-2.45282 0,-4.30838 2.76329,-6.05365 8.19036,-5.17296 4.44172,0.7208 4.90726,0.41979 8.84752,-5.72055 9.25874,-14.42857 18.38107,-20.4923 32.29541,-21.46724 10.93728,-0.76635 17.86494,0.91528 18.38824,4.46357 0.24855,1.68539 2.88488,3.81567 7.32776,5.92119 3.81675,1.80879 9.77758,5.23871 13.2463,7.62205 3.46872,2.38333 6.63606,4.33333 7.03856,4.33333 0.4025,0 1.30212,-1.5 1.99914,-3.33333 1.15635,-3.04144 1.9639,-3.33334 9.22164,-3.33334 4.37488,0 8.35238,-0.64406 8.83888,-1.43126 0.55331,-0.89525 1.60974,-0.39593 2.82096,1.33334 1.97335,2.81734 7.11852,3.85183 7.11852,1.43126 0,-2.48801 6.53806,-1.39834 8,1.33333 0.78494,1.46667 2.60604,2.66667 4.04691,2.66667 4.14964,0 3.58997,-7.1299 -0.71357,-9.09073 -3.99923,-1.82217 -4.37958,-4.24261 -0.66667,-4.24261 6.15489,0 11.29536,12.15248 6,14.1845 -2.21691,0.85071 -2.86096,10.45936 -0.78699,11.74114 2.36002,1.45858 5.59771,-0.97925 6.35955,-4.78841 0.84856,-4.24285 3.09411,-6.54672 3.09411,-3.17448 0,1.16607 2.44918,4.35148 5.44264,7.07869 6.01088,5.47626 9.22402,10.687 9.22402,14.95856 0,3.12002 -3.24986,10.1105 -6.33898,13.63523 -3.10024,3.53741 -4.57619,1.37957 -2.19972,-3.21601 3.14132,-6.07463 2.9201,-15.29707 -0.4477,-18.66487 -3.7204,-3.72041 -6.56046,-1.96296 -3.75272,2.32221 2.93172,4.47436 2.64894,11.50387 -0.5738,14.26327 -6.24864,5.35024 -13.81996,3.97681 -15.30312,-2.77599 -0.57164,-2.60268 -2.29225,-4.48765 -5.48694,-6.01109 -7.30648,-3.48421 -9.04666,-3.01784 -7.88774,2.11392 0.53823,2.38333 1.16986,9.38907 1.4036,15.56829 0.32062,8.47558 0.93612,11.52102 2.50606,12.3996 2.61014,1.4607 2.63933,4.70366 0.0971,10.78806 -1.86932,4.47393 -2.26314,4.70296 -6.81625,3.96409 -4.74557,-0.77009 -4.81847,-0.71479 -4.06164,3.08123 0.42385,2.12597 1.16997,6.2654 1.65804,9.19873 0.48807,2.93334 1.145,5.78496 1.45985,6.33694 1.19355,2.09246 5.42556,-1.74492 6.20116,-5.62291 0.4452,-2.22606 1.27447,-4.04026 1.8428,-4.03156 0.56834,0.009 3.33646,3.3332 6.15138,7.38781 5.65312,8.14274 5.18733,11.26306 -1.6813,11.26306 -4.1218,0 -6.77008,2.17497 -6.77008,5.56013 0,1.89055 -0.99482,2.30173 -5,2.06667 l -5,-0.29347 v 8.25764 c 0,4.82351 -0.69312,8.95451 -1.66666,9.93333 -0.91667,0.92163 -1.66667,4.8557 -1.66667,8.74236 0,4.68256 -0.56229,7.11847 -1.66667,7.2202 -3.93406,0.36243 -7.45674,-0.64946 -14.63072,-4.20266 -11.00168,-5.44902 -15.0392,-5.82862 -17.76396,-1.67011 -1.65798,2.53039 -6.84858,32.26692 -7.28224,41.71924 -0.0969,2.11391 -2.61912,-3.83233 -2.636,-6.21469 -0.0326,-4.60619 -5.55681,-17.78531 -7.45492,-17.78531 -1.85692,0 -1.44381,6.50599 0.88042,13.86563 0.67144,2.1261 1.2208,5.21738 1.2208,6.86952 0,2.95396 -0.1032,2.9728 -6.21191,1.13436 -12.50307,-3.76287 -14.72623,-1.26366 -5.14423,5.78302 5.04598,3.71086 5.83403,4.93154 5.59508,8.66667 -0.15297,2.39111 -0.8693,4.47771 -1.59186,4.63689 -0.72256,0.15918 -8.60191,-3.29082 -17.50966,-7.66666 -8.90774,-4.37586 -17.21787,-7.9561 -18.46695,-7.9561 -1.5129,0 0.53392,2.90508 6.13126,8.70216 4.62127,4.78618 9.21488,10.63618 10.20803,13 4.60938,10.97092 7.79617,15.84328 11.97494,18.30882 2.47558,1.46064 5.15387,2.65569 5.95175,2.65569 3.80341,0 38.29041,19.48679 42.39688,23.95624 0.36667,0.39908 2.89484,2.38607 5.61816,4.41554 2.72332,2.02946 6.90704,5.47605 9.29715,7.65908 3.94217,3.60062 7.75136,5.17044 7.75136,3.19445 0,-0.42608 -2.09404,-4.9472 -4.65342,-10.04693 -3.66805,-7.30884 -4.25478,-9.42522 -2.77085,-9.99464 1.0354,-0.39732 3.09,-0.0763 4.56576,0.7136 1.47576,0.7898 5.71121,1.436 9.41212,1.436 6.06552,0 6.8114,-0.32863 7.56553,-3.33334 0.46014,-1.83333 1.1103,-3.33333 1.44482,-3.33333 1.64288,0 23.21362,28.56319 25.47224,33.7294 3.27204,7.48424 1.71661,16.12943 -5.91155,32.85675 -8.00245,17.54808 -9.4678,20.901 -10.31845,23.61022 -1.59899,5.0925 -5.23215,2.03598 -12.00358,-10.09842 -9.13208,-16.36467 -14.50584,-19.3962 -9.33388,-5.26559 2.11367,5.77487 4.277,12.92023 7.82163,25.83431 3.75871,13.69398 4.98904,28.44604 3.38288,40.56159 -2.64136,19.92426 -7.58913,30.21693 -10.65244,22.15982 -0.67493,-1.77521 -3.1916,-7.31374 -5.59259,-12.30786 -4.03272,-8.38816 -4.40212,-8.77868 -4.84666,-5.12399 -0.26468,2.17593 0.14268,7.27593 0.90525,11.33333 3.33324,17.73515 3.40427,49.37711 0.1108,49.37711 -0.65455,0 -2.94072,-3.45 -5.08037,-7.66667 -2.13964,-4.21666 -5.80318,-11.41666 -8.14116,-16 -2.338,-4.58333 -4.86972,-8.33333 -5.62606,-8.33333 -2.50425,0 -0.36528,9.12671 7.3434,31.33333 5.81138,16.74099 7.1173,34.59272 2.93188,40.0785 -2.57766,3.37853 -3.16173,2.49424 -10.04584,-15.20968 -2.95088,-7.58882 -7.25085,-16.53851 -9.5555,-19.8882 -5.15186,-7.488 -13.59226,-16.31395 -15.60127,-16.31395 -2.40901,0 -1.71541,3.85847 1.51399,8.42229 6.45397,9.12084 10.32998,17.02818 10.32998,21.07387 0,2.11628 -1.03365,2.50384 -6.67796,2.50384 -6.03932,0 -6.53789,0.22431 -5.21322,2.34543 0.8056,1.28998 3.9496,3.53998 6.98665,5 5.57611,2.68062 15.5712,11.60173 15.5712,13.89805 0,0.68392 -1.2,1.62435 -2.66667,2.08985 -4.20469,1.33452 -3.15497,3.26728 3.33334,6.13736 3.3,1.45976 6,3.40976 6,4.33336 0,0.9236 -9.883,8.24552 -21.96224,16.27095 -12.07923,8.02542 -21.97923,15.2855 -22,16.13351 -0.0381,1.55913 3.50545,1.21797 8.6289,-0.83073 1.46667,-0.58648 6.86667,-2.72803 12,-4.75899 5.13334,-2.03097 12.33334,-5.02131 16,-6.6452 10.11459,-4.47953 33.90324,-11.84812 34.93132,-10.82006 1.29715,1.29716 -12.27526,10.25406 -25.8895,17.08539 -1.62702,0.8164 -2.6416,1.99662 -2.25466,2.62272 1.03336,1.672 5.37508,1.39283 12.36723,-0.79521 3.39841,-1.06347 8.57895,-2.51692 11.51228,-3.22989 2.93333,-0.71298 13.51263,-3.44287 23.50953,-6.06643 9.99691,-2.62356 18.75562,-4.77011 19.46379,-4.77011 0.78412,0 1.03865,5.16944 0.65096,13.22062 -0.64587,13.41284 0.1184,20.11272 2.29421,20.11272 1.0561,0 7.2567,-6.11343 17.78355,-17.5335 5.03824,-5.46573 24.40718,-19.41816 31.37558,-22.6014 8.8903,-4.06119 24.06738,-4.20227 32.25572,-0.29983 8.55721,4.07826 16.83665,11.66414 21.38414,19.59283 3.39035,5.91118 3.92587,8.21527 3.93668,16.93771 0.007,5.66769 -0.88662,12.68545 -2.03746,16 -2.70804,7.79947 -10.76098,19.42644 -16.79371,24.24703 l -4.84368,3.87045 -5.15632,-2.529 c -9.34956,-4.58563 -31.79869,-16.71373 -33.08965,-17.87663 -1.61936,-1.45869 -6.06667,-1.48809 -6.06667,-0.0401 0,1.82013 5.00419,5.83647 26.66667,21.40255 11.36666,8.16777 26.29333,18.89586 33.17036,23.84018 16.4191,11.80471 30.0896,24.57396 36.03178,33.65635 4.562,6.97284 4.79707,7.89047 4.78186,18.66667 -0.0133,9.10317 -0.58778,12.38283 -2.92167,16.66667 -8.08804,14.84556 -23.8092,24.69222 -51.06233,31.982 -4.76667,1.275 -10.16667,2.83086 -12,3.45746 -1.83334,0.6266 -7.83334,2.31351 -13.33334,3.74867 -5.5,1.43516 -11.8,3.18493 -14,3.8884 -2.2,0.70347 -6.4,1.92045 -9.33333,2.7044 -11.82657,3.16071 -24.41777,6.69485 -41.33334,11.60157 -19.64717,5.6991 -44.96757,12.8942 -52,14.77646 -4.4,1.17768 -9.5,2.63617 -11.33333,3.2411 -1.83333,0.60492 -5.22112,1.47139 -7.52841,1.92548 -6.82708,1.34359 -8.36715,4.21174 -8.99818,16.75775 -0.55049,10.94496 -3.4572,22.52975 -6.66996,26.58338 -1.54622,1.9509 -2.44329,3.73942 -6.68764,13.33333 -1.13549,2.56667 -2.59106,8.56667 -3.23462,13.33333 -1.0888,8.06466 -0.77578,14.02482 1.76914,33.68468 0.83699,6.4658 0.685,7.5657 -0.9583,6.9351 -1.07418,-0.4122 -3.26228,-2.5203 -4.86246,-4.6846 -6.08941,-8.23636 -7.15769,-3.781 -2.24549,9.3651 9.38456,25.1152 18.08259,52.608 18.08259,57.1557 0,5.0041 -1.87466,3.1183 -6,-6.0356 -8.655,-19.2051 -13.4953,-28.4806 -14.39352,-27.5824 -1.34143,1.3414 -1.16414,8.1994 0.23432,9.0637 0.64577,0.3991 1.49049,2.0845 1.87716,3.7453 0.38666,1.6609 2.60049,8.1197 4.91961,14.3531 2.31912,6.2333 5.60927,15.5333 7.31144,20.6666 1.70217,5.1334 3.71729,10.8334 4.47803,12.6667 0.76073,1.8333 2.87244,7.5333 4.69268,12.6667 1.82022,5.1333 5.22518,14.7333 7.56654,21.3333 2.34136,6.6 4.7454,13.2 5.34231,14.6667 0.59689,1.4666 2.99389,8.3666 5.32665,15.3333 2.33275,6.9667 5.08214,14.5573 6.10974,16.8682 1.02761,2.3108 1.86837,5.1254 1.86837,6.2546 0,1.1292 0.6,2.424 1.33333,2.8772 0.73334,0.4532 1.33334,2.1686 1.33334,3.812 0,1.6434 0.66772,3.6557 1.48382,4.4718 3.30666,3.3067 -0.51462,4.3829 -15.56252,4.3829 -8.39005,0 -15.25464,0.5037 -15.25464,1.1193 0,2.5759 8.1862,4.6222 20.94948,5.2368 15.2938,0.7364 17.26348,1.8149 18.62384,10.1978 0.61428,3.7853 0.18646,5.5479 -1.90102,7.832 -5.59058,6.1171 -7.61915,11.9207 -7.55498,21.6141 0.0739,11.1584 3.90815,20.2841 12.99599,30.9307 4.22951,4.955 5.72275,7.7615 5.31079,9.9812 -0.48878,2.6337 0.36968,3.4659 5.83474,5.6565 7.61547,3.0524 8.36074,3.961 8.38742,10.2249 0.0341,8.0093 -6.79792,11.4426 -18.22379,9.158 z M 328.95349,924.1731 c 0.49943,-2.8757 1.50515,-6.77864 2.23492,-8.67318 1.58183,-4.10651 0.19603,-6.97092 -2.81373,-5.81596 -3.4638,1.32918 -6.88604,14.32446 -4.79916,18.22384 2.02249,3.77906 4.35425,2.1598 5.37797,-3.7347 z m 119.79663,-89.2109 c 31.88928,-20.5819 55.54134,-34.01766 59.88404,-34.01766 0.62947,0 2.86306,-0.8963 4.96355,-1.99178 2.10049,-1.09548 4.85693,-1.99548 6.12543,-2 3.6658,-0.0133 13.31303,-4.26711 12.11404,-5.34183 -0.59788,-0.53591 -7.08705,-2.02814 -14.42039,-3.31606 -7.33333,-1.28792 -17.53333,-3.16813 -22.66667,-4.17824 -15.99372,-3.14717 -14.56774,-3.98446 -28.66666,16.83238 -4.03334,5.95516 -8.97375,12.74036 -10.97871,15.07821 -2.00495,2.33787 -3.65495,4.70066 -3.66667,5.25066 -0.012,0.55 -0.84629,1 -1.85462,1 -1.97479,0 -3.5,-5.59243 -3.5,-12.83334 0,-3.01704 -0.62948,-4.5 -1.91015,-4.5 -2.10212,0 -2.20812,0.28298 -5.49393,14.66667 -2.48688,10.88633 -5.82344,20.17421 -7.72994,21.5176 -1.26277,0.88979 -0.0508,3.84724 1.54604,3.77276 0.50672,-0.0236 7.82131,-4.49635 16.25464,-9.93937 z M 201.24032,642.56848 c -6.6274,-9.89517 -14.75275,-25.07504 -13.911,-25.98866 0.73845,-0.80151 26.62272,11.60296 47.59676,22.80972 3.65568,1.95328 12.10109,5.555 13.02555,5.555 1.81837,0 0.6217,-2.81559 -1.53484,-3.61126 -1.28334,-0.47349 -2.63334,-1.21769 -3,-1.65377 -0.36667,-0.43609 -10.26667,-6.71208 -22.00001,-13.94667 -11.73333,-7.23458 -22.95904,-14.27154 -24.94601,-15.6377 -1.98697,-1.36616 -3.94339,-2.48394 -4.34757,-2.48394 -0.4042,0 -6.06976,-3.3 -12.59012,-7.33333 -6.52036,-4.03333 -12.51396,-7.33333 -13.31908,-7.33333 -0.80514,0 -1.46388,-0.6 -1.46388,-1.33334 0,-0.73333 -0.68516,-1.33333 -1.52259,-1.33333 -0.83741,0 -5.32271,-2.4 -9.96732,-5.33333 -4.6446,-2.93334 -8.76465,-5.33334 -9.15566,-5.33334 -0.391,0 -6.45562,-3.31656 -13.47692,-7.37012 -20.80849,-12.01326 -28.692,-15.68205 -30.28169,-14.09236 -0.987951,0.98795 -0.988919,2.31254 -0.003,4.43554 0.77295,1.66482 2.73693,7.52694 4.3644,13.02694 1.62748,5.5 3.18411,10.75 3.45918,11.66667 0.59624,1.98689 5.41122,2.23067 6.58384,0.33333 0.45322,-0.73333 4.29861,-1.33333 8.5453,-1.33333 6.53958,0 8.61911,0.64484 13.58798,4.21351 3.22669,2.31742 6.16671,4.57708 6.53338,5.02145 0.36667,0.44437 2.76667,2.5258 5.33333,4.62541 5.04679,4.1284 24.17155,21.4766 34.56417,31.35339 14.39569,13.68116 19.34236,17.73333 19.83686,16.24983 0.28399,-0.85198 -0.57588,-3.17982 -1.91082,-5.17298 z m 88.84313,-4.99912 c 0,-1.12302 -0.75,-2.26616 -1.66666,-2.54032 -0.91667,-0.27414 -4.88284,-1.48914 -8.81371,-2.7 -7.67265,-2.36344 -9.59924,-1.92256 -7.32864,1.67708 2.71104,4.2979 17.80901,7.31871 17.80901,3.56324 z m -18.41666,-16.2023 c -0.96251,-0.38516 -2.1125,-0.3378 -2.55556,0.1052 -0.44306,0.44305 0.34445,0.75818 1.75,0.70029 1.55326,-0.064 1.8692,-0.37992 0.80556,-0.80555 z m -5.58334,-19.13456 c 0,-2.90715 -13.566,-21.0622 -22.90165,-30.64872 -15.5047,-15.92135 -34.1681,-28.7695 -37.27616,-25.66143 -0.65807,0.65807 7.6029,9.49789 19.08712,20.42453 11.13602,10.59538 24.40861,23.31432 29.49464,28.26432 8.99159,8.75114 11.59605,10.46287 11.59605,7.6213 z m 70.48082,-397.73069 c 1.09104,-1.31464 0.99154,-2.43587 -0.38299,-4.31564 -1.82076,-2.49004 -1.91125,-2.49046 -4.63936,-0.0216 -2.12673,1.92466 -2.43083,2.94161 -1.29049,4.31562 1.89773,2.28664 4.42582,2.29527 6.31284,0.0216 z M 1345.2438,645.25746 c -0.8284,-0.53878 -1.9282,-4.87959 -2.4439,-9.64626 -1.2977,-11.99453 -3.8119,-20.04148 -10.043,-32.14389 -5.8413,-11.34529 -6.2477,-14.51311 -3.7793,-29.45983 1.2173,-7.37096 1.1923,-11.68206 -0.1136,-19.59017 -2.3479,-14.21827 -7.721,-31.64855 -12.9899,-42.13877 -2.7778,-5.53059 -3.2054,-7.80774 -2.5106,-13.36909 l 0.8375,-6.70306 -5.9475,-2.45263 c -6.0087,-2.47791 -12.6011,-8.37343 -15.3434,-13.72157 -0.8213,-1.60179 -1.4933,-6.0209 -1.4933,-9.82023 0,-6.10903 -0.4841,-7.31416 -4.1865,-10.42099 -9.7249,-8.16061 -13.1468,-12.37941 -13.1468,-16.20845 0,-2.11135 -0.9441,-4.36715 -2.098,-5.01288 -1.1538,-0.64575 -2.8038,-2.58396 -3.6666,-4.30713 -1.4185,-2.83294 -2.5267,-3.15616 -11.5687,-3.37418 -5.5,-0.13253 -10.4271,-0.003 -10.9491,0.2881 -1.5607,0.87021 1.4322,7.1918 4.6338,9.78753 1.64,1.32973 2.5124,2.88892 1.9384,3.46487 -1.4009,1.40581 -19.2635,0.72481 -22.0663,-0.84126 -10.7601,-6.0124 -18.8551,-6.61974 -28.6394,-2.14878 -12.0753,5.51781 -18.172,7.50574 -23.0192,7.50574 -5.0833,0 -14.5924,-4.31392 -28.9217,-13.1208 -4.9629,-3.05022 -9.3822,-5.54586 -9.8207,-5.54586 -0.4385,0 -4.9279,-2.74608 -9.9765,-6.1024 -9.144,-6.07892 -12.1945,-10.64696 -6.1793,-9.25338 1.65,0.38228 8.4,1.33175 15,2.10994 6.6,0.7782 16.2,1.9505 21.3333,2.60514 20.2047,2.57667 21.59,0.83642 6.2882,-7.89965 -21.7379,-12.41051 -25.8246,-15.12324 -24.6112,-16.33669 0.7406,-0.74052 2.7525,-0.63839 5.1059,0.25918 2.1361,0.81468 6.2838,1.96672 9.2171,2.56008 5.5927,1.1313 35.1698,7.54366 40.3333,8.74434 5.2816,1.22809 3.3806,-2.65108 -4.3041,-8.78315 -9.7505,-7.78048 -7.9528,-9.34188 6.0854,-5.28547 8.6227,2.49156 11.0254,2.77363 11.8778,1.39442 0.7333,-1.1866 -0.8498,-3.02812 -5.0468,-5.87066 -21.6737,-14.6788 14.7839,-2.35582 43.0544,14.55276 2.9333,1.75443 6.239,3.2159 7.3459,3.24771 4.4518,0.12787 7.8615,-11.14152 5.2666,-17.40632 -2.0323,-4.90627 -0.8113,-6.39908 2.6625,-3.25535 4.0139,3.63255 5.6838,10.14559 4.2442,16.55302 -1.6069,7.15181 0.2657,8.33025 5.2759,3.32008 3.1118,-3.11183 4.011,-5.43012 4.7137,-12.15278 0.8634,-8.26062 0.8822,-8.2913 3.3464,-5.4501 1.5373,1.77257 2.485,4.93113 2.4963,8.31996 0.011,3.00445 0.3897,6.84956 0.8437,8.54466 0.7503,2.80187 1.0623,2.55947 3.4319,-2.66666 1.7462,-3.85114 2.852,-10.03979 3.3503,-18.74868 0.8163,-14.26911 0.9662,-14.45211 9.0654,-11.06805 5.551,2.31935 5.58,2.76643 1.2958,19.98002 -3.3944,13.63829 -9.6977,28.43819 -14.145,33.21187 -5.9004,6.33328 -1.0133,7.36082 5.9912,1.25973 4.006,-3.48925 5.9777,-1.71381 3.4149,3.07489 -1.9512,3.64579 -1.3001,4.98246 1.8399,3.77752 1.185,-0.45473 2.5491,-3.01885 3.0313,-5.69805 0.4822,-2.6792 1.3449,-5.47127 1.917,-6.2046 0.5721,-0.73333 1.4618,-3.58996 1.9773,-6.34807 0.5154,-2.75809 1.4169,-5.31124 2.0033,-5.67365 0.5864,-0.3624 1.507,-3.20577 2.0457,-6.3186 l 0.9797,-5.65968 1.2922,3.8008 c 2.0107,5.91405 -2.2875,24.88429 -8.4763,37.41071 -2.8654,5.79965 -5.2098,11.04965 -5.2098,11.66666 0,2.40679 2.7724,0.88438 8.2764,-4.54484 7.3518,-7.25189 9.9123,-11.977 12.9304,-23.86154 2.0403,-8.03415 2.6665,-9.19443 3.8019,-7.04502 2.2144,4.1918 4.6229,17.87012 3.7552,21.32698 -0.4511,1.79766 -5.4737,7.06586 -11.4504,12.01058 -5.8558,4.84456 -10.6468,9.35446 -10.6468,10.02199 0,2.01856 4.4625,1.37016 10,-1.45299 10.7153,-5.463 10.9749,-3.65486 2.0294,14.13439 -3.6505,7.25943 -6.6505,13.94895 -6.6667,14.86561 -0.016,0.94178 1.5872,1.66667 3.6874,1.66667 2.6834,0 5.4238,-1.7608 9.8566,-6.33333 11.3281,-11.68511 14.3922,-21.16479 14.4122,-44.58798 0.01,-9.30672 0.4685,-17.20198 1.0236,-17.54502 0.555,-0.34304 6.2885,8.17156 12.7411,18.92132 13.2997,22.15673 13.156,21.37161 7.5577,41.29189 -3.0018,10.68119 -3.0383,11.37745 -1.0139,19.33333 2.2508,8.84568 8.124,25.43605 10.3496,29.23503 1.733,2.95815 1.7448,7.28724 0.023,8.35143 -3.2307,1.99665 -0.7829,7.16485 7.7097,16.27867 12.123,13.0095 12.1287,13.01708 15.0542,19.63064 2.8298,6.39714 3.6302,15.84716 2.0406,24.09069 -1.3746,7.12844 -2.524,8.01547 -6.7757,5.22956 -3.0113,-1.97305 -3.7753,-2.05168 -4.7419,-0.48792 -0.7421,1.20091 -0.3776,2.71988 1.0247,4.26941 2.0157,2.22732 2.0072,2.57487 -0.116,4.69712 -1.3444,1.34392 -4.3407,2.29183 -7.2443,2.29183 -4.1137,0 -4.9257,0.45123 -4.7985,2.66667 0.084,1.46666 0.5492,3.58837 1.0333,4.71492 0.6427,1.49566 -0.2868,2.39493 -3.445,3.33333 -2.991,0.88863 -4.56,2.31343 -5.086,4.61841 -0.5663,2.48074 -1.7704,3.44878 -4.708,3.78466 -5.2882,0.60461 -7.2807,2.47828 -7.2807,6.8463 0,4.15191 -2.4947,12.04587 -3.7971,12.0153 -0.4783,-0.0107 -1.5474,-0.46123 -2.3759,-1 z m -5.1021,-152.61621 c 5.7421,-6.8099 9.4998,-17.09132 5.3957,-14.76297 -2.1499,1.21965 -15.4539,17.58848 -15.4539,19.01397 0,4.03684 4.7697,2.02096 10.0582,-4.251 z M 423.41679,363.6112 c 0,-0.73334 0.93541,-1.33334 2.07869,-1.33334 1.14328,0 1.70787,0.6 1.25464,1.33334 -1.06624,1.72521 -3.33333,1.72521 -3.33333,0 z m -5.33333,-4.66667 c -0.91292,-1.1 -2.48639,-2 -3.49659,-2 -1.01021,0 -1.83675,-0.6 -1.83675,-1.33333 0,-2.1028 3.99932,-1.5532 4.85116,0.66666 0.42212,1.1 1.56787,2 2.54614,2 0.97826,0 2.14948,0.6 2.6027,1.33334 1.31742,2.13161 -2.83682,1.53814 -4.66666,-0.66667 z m -13.1088,-8.65783 c -2.41402,-2.20486 -4.95208,-4.00884 -5.64016,-4.00884 -0.68807,0 -1.25104,-0.6 -1.25104,-1.33333 0,-0.73333 -0.91883,-1.33333 -2.04184,-1.33333 -1.12303,0 -2.36454,-0.84088 -2.75891,-1.86862 -0.39437,-1.02773 -1.87555,-2.17156 -3.29148,-2.54184 -1.41595,-0.37028 -2.57444,-1.3294 -2.57444,-2.13138 0,-2.06464 2.12721,-1.80714 4.47619,0.54184 1.1,1.1 2.34117,2 2.75816,2 1.4282,0 16.15304,11.3317 16.45953,12.66666 0.62317,2.71428 -1.87001,1.90523 -6.13601,-1.99116 z m 55.16574,-1.25004 c -0.42192,-0.68266 -0.15732,-1.61808 0.58798,-2.07869 0.74529,-0.46061 1.35508,0.0979 1.35508,1.2412 0,2.34204 -0.80008,2.68688 -1.94306,0.83749 z m -3.28501,-4.42546 c -0.0579,-1.28334 -1.00527,-2.33334 -2.10527,-2.33334 -1.15322,0 -2,-1.20516 -2,-2.84648 0,-2.68865 0.15379,-2.65097 2.77351,0.67947 1.52544,1.93928 2.4728,4.27019 2.10527,5.17981 -0.39308,0.97283 -0.71159,0.69304 -0.77351,-0.67946 z m 6.5614,-210.33334 c 0,-0.73333 0.6,-1.33333 1.33333,-1.33333 0.73334,0 1.33334,0.6 1.33334,1.33333 0,0.73333 -0.6,1.33333 -1.33334,1.33333 -0.73333,0 -1.33333,-0.6 -1.33333,-1.33333 z"
       id="path22" />
  </g>
</svg>
